<?xml version="1.0" standalone="no"?>
<!DOCTYPE svg PUBLIC "-//W3C//DTD SVG 20010904//EN"
 "http://www.w3.org/TR/2001/REC-SVG-20010904/DTD/svg10.dtd">
<svg version="1.0" xmlns="http://www.w3.org/2000/svg"
 width="838.000000pt" height="554.000000pt" viewBox="0 0 838.000000 554.000000"
 preserveAspectRatio="xMidYMid meet">

<g transform="translate(0.000000,554.000000) scale(0.100000,-0.100000)"
fill="#000000" stroke="none">
<path d="M2445 4676 c-40 -17 -124 -85 -253 -205 -167 -155 -1338 -1348 -1423
-1450 -117 -139 -129 -169 -129 -311 0 -142 12 -171 132 -316 121 -146 1582
-1605 1640 -1638 l47 -26 2261 0 2262 0 70 37 c92 48 150 108 199 204 l39 79
0 1660 0 1660 -39 79 c-49 96 -107 156 -199 204 l-70 37 -2253 0 c-1851 -1
-2259 -3 -2284 -14z m4507 -189 c46 -19 108 -81 133 -132 20 -39 20 -69 20
-1645 0 -1535 -1 -1607 -18 -1642 -25 -49 -79 -103 -130 -131 l-42 -22 -2115
0 c-1163 1 -2160 4 -2215 9 l-100 8 -145 142 c-207 201 -1172 1182 -1345 1366
-155 165 -165 182 -165 278 0 74 19 111 101 199 145 156 1321 1343 1445 1459
l127 119 361 6 c198 3 1191 5 2206 4 1647 -2 1849 -4 1882 -18z"/>
<path d="M3505 3925 c-5 -2 -22 -6 -37 -9 -93 -21 -154 -154 -114 -250 13 -31
415 -454 700 -736 l116 -114 -373 -376 c-205 -206 -390 -397 -412 -423 -29
-36 -39 -59 -43 -96 -9 -92 51 -175 144 -200 53 -14 100 -5 144 27 19 14 209
199 423 411 l387 385 253 -250 c366 -364 554 -542 589 -560 48 -25 146 -16
191 19 47 35 77 100 77 164 0 47 -4 55 -56 114 -31 35 -218 229 -415 430
l-358 366 300 299 c165 164 350 352 412 418 l111 118 4 62 c4 73 -15 115 -71
160 -32 26 -49 31 -106 34 l-67 4 -65 -53 c-35 -29 -227 -215 -426 -412 l-362
-360 -198 191 c-109 105 -292 286 -408 402 -187 187 -215 212 -259 225 -49 15
-62 16 -81 10z"/>
</g>
</svg>
