<svg xmlns="http://www.w3.org/2000/svg" width="144" height="44"><path fill="#ec0000" d="M53.7 34.197a12.29 12.29 0 0 0-3.165.476v8.4H51.7v-7.597a8.53 8.53 0 0 1 1.961-.243c2.074 0 2.662.813 2.662 2.383v5.486H57.5v-5.7c0-2.037-.953-3.205-3.8-3.205zm9.34 4.12l-.794-.27c-1.046-.355-1.7-.645-1.7-1.59s.654-1.243 1.96-1.243a7.112 7.112 0 0 1 2.456.42c.093-.325.15-.66.17-1a7.467 7.467 0 0 0-2.662-.438c-1.868 0-3.054.794-3.054 2.3 0 1.345.83 2.112 2.325 2.56l.776.243c.812.252 1.737.607 1.737 1.617s-.794 1.364-2.092 1.364a5.853 5.853 0 0 1-2.746-.654 3.413 3.413 0 0 0-.168 1.028 5.82 5.82 0 0 0 2.951.654c2.027 0 3.203-.934 3.203-2.43s-.952-2.102-2.325-2.56h-.037zM53.7 23.254l.15 1.495h2.52V12.292a14 14 0 0 0-4.67-.691c-4.613 0-6.947 2.485-6.947 6.868 0 4.187 2.185 6.542 5.472 6.542a3.8 3.8 0 0 0 3.512-1.757h-.037zm-6.2-4.785c0-2.803 1.325-4.532 4.165-4.532a11.89 11.89 0 0 1 1.96.15v7.82a4.248 4.248 0 0 1-2.66.935c-2.392-.056-3.428-1.832-3.428-4.374h-.038zm-10.387 13.86a6.711 6.711 0 0 1 2.307.402 4.27 4.27 0 0 0 .205-1.131 7.271 7.271 0 0 0-2.512-.402c-3.55 0-5.603 2.224-5.603 6.074 0 3.663 1.942 6.074 5.463 6.074a6.954 6.954 0 0 0 2.344-.355c.1-.4.164-.83.187-1.252a6.02 6.02 0 0 1-2.381.477c-2.662 0-4.38-1.87-4.38-5s1.737-4.897 4.37-4.897zm7.565 1.87c-2.615 0-4.165 1.757-4.165 4.607 0 2.598 1.373 4.504 4.062 4.504s4.184-1.747 4.184-4.672c0-2.533-1.345-4.44-4.08-4.44zm0 8.055c-1.924 0-2.933-1.27-2.933-3.532 0-2.075.934-3.458 2.933-3.458s2.914 1.28 2.914 3.495-1 3.495-2.942 3.495h.028zM36.57 22.628a11.49 11.49 0 0 1-4.548-.935 8.135 8.135 0 0 0-.477 2.523c1.612.68 3.352.998 5.1.935 4.24 0 6.406-1.972 6.406-4.83 0-2.42-1.326-3.84-4.483-5.187l-1.344-.57c-1.747-.748-2.718-1.495-2.718-2.803s.98-2.16 3.138-2.16c1.39.015 2.77.26 4.08.73a9.509 9.509 0 0 0 .495-2.495 13.702 13.702 0 0 0-4.557-.72c-4.026 0-5.996 1.813-5.996 4.673 0 2.644 1.597 3.962 3.932 4.98l1.27.552c2.353 1 3.287 1.673 3.287 3.12s-1.298 2.215-3.614 2.215l.028-.028zm77.85 2.392a3.735 3.735 0 0 0 3.559-1.869l.15 1.59h2.512V7.3a8.26 8.26 0 0 0-2.709.374v4.112a11.088 11.088 0 0 0-2.045-.196c-4.604 0-6.948 2.485-6.948 6.868-.028 4.187 2.194 6.58 5.454 6.58l.028-.028zm1.318-11.11c.738.01 1.473.095 2.194.252v7.69a4.406 4.406 0 0 1-2.746.935c-2.437 0-3.455-1.795-3.455-4.336-.028-2.823 1.27-4.514 3.978-4.514l.03-.028zm-96.735-2a5.89 5.89 0 0 0-.766-2.626l-4.156-7.196A5.693 5.693 0 0 1 13.43.359l-.178.3a5.76 5.76 0 0 0 0 5.756l3.325 5.757a5.76 5.76 0 0 1 0 5.756l-.178.3a5.693 5.693 0 0 0-.653-1.739l-4.978-8.653a5.805 5.805 0 0 1-.663-1.738l-.168.3a5.75 5.75 0 0 0 0 5.737l3.325 5.776a5.713 5.713 0 0 1 0 5.756l-.17.3a5.843 5.843 0 0 0-.653-1.738L8.284 15.03a5.731 5.731 0 0 1-.813-3.112C3.026 13.087 0 15.554 0 18.404c0 3.97 5.94 7.186 13.252 7.186s13.262-3.224 13.262-7.196c0-2.84-3.064-5.317-7.51-6.476zm53.84 29.417a3.426 3.426 0 0 1-2.4.935c-1.513 0-2.223-.74-2.223-2.495v-5.374h-1.177v5.607c0 2.27 1.13 3.336 2.998 3.336a3.734 3.734 0 0 0 2.802-.934v.766h1.11v-8.775h-1.11v6.934zM67.68 24.75h2.737v-8.4c0-3-1.476-4.776-6.052-4.776-1.68.052-3.348.283-4.978.692V24.75h2.737V14.133c.716-.12 1.44-.186 2.166-.196 2.737 0 3.4.934 3.4 2.916v7.896zm61.256-13.176c-4.362 0-6.08 2.934-6.08 6.644 0 4.26 2.223 6.803 6.8 6.803a9.437 9.437 0 0 0 4.034-.794 36.96 36.96 0 0 0 .43-2.495c-1.38.62-2.877.937-4.4.934-2.437 0-3.735-1.075-4.08-3.3h8.74a14.27 14.27 0 0 0 .15-2.12c0-3.094-1.7-5.682-5.603-5.682zm-3.334 5.523c.224-2.112 1.242-3.234 3.184-3.234s2.99 1.196 2.99 3.234h-6.173zm10.048 25.988h1.177V31.262c-.398.001-.794.058-1.177.17v11.653zm-6.005-8.915c-1.07.02-2.135.18-3.166.476v8.4h1.177v-7.57a8.456 8.456 0 0 1 1.952-.243c2.083 0 2.67.813 2.67 2.383v5.486h1.177v-5.7c0-2.037-.962-3.205-3.8-3.205v-.028zm-12.766 4.625c0 2.888 1.485 4.486 3.876 4.486a3.408 3.408 0 0 0 2.297-.86v.664h1.158v-8.4a7.71 7.71 0 0 0-2.802-.477c-3.063 0-4.53 1.672-4.53 4.625v-.028zm6.126 2.682a3.02 3.02 0 0 1-2.148.86c-1.867 0-2.8-1.336-2.8-3.514s1.027-3.58 3.287-3.58a6.534 6.534 0 0 1 1.644.206l.018 6.027zM141.6 11.574a16.95 16.95 0 0 0-4.67.691V24.75h2.746V14.086a14.653 14.653 0 0 1 2.018-.15c.69-.005 1.378.03 2.063.104.175-.77.26-1.557.253-2.346-.8-.083-1.605-.124-2.4-.12zm.738 22.8H140.9l-3.605 3.963v.112l3.866 4.672h1.466l-3.95-4.728 3.66-4.02zm-42.493.27v8.4h1.177V35.43a8.96 8.96 0 0 1 1.653-.187 9.39 9.39 0 0 1 1.298.075 4.36 4.36 0 0 0 .121-1.018c-.484-.05-.97-.072-1.457-.066a9.716 9.716 0 0 0-2.792.44v-.03zM92.7 12.292a14 14 0 0 0-4.67-.691c-4.604 0-6.948 2.485-6.948 6.868 0 4.187 2.195 6.542 5.482 6.542a3.81 3.81 0 0 0 3.512-1.795l.15 1.496h2.51l-.037-12.42zm-2.736 9.616a4.266 4.266 0 0 1-2.662.935c-2.447 0-3.465-1.795-3.465-4.336 0-2.804 1.317-4.533 4.156-4.533.66-.004 1.32.046 1.97.15v7.784zm4.408 12.29c-2.802 0-3.904 2-3.904 4.504 0 2.906 1.485 4.607 4.305 4.607a5.143 5.143 0 0 0 2.68-.635c.085-.374.15-.832.187-1.13a5.713 5.713 0 0 1-2.801.72c-1.924 0-2.99-1.075-3.138-3.103h6.238c.046-.347.068-.697.066-1.047-.028-2.177-1.112-3.915-3.633-3.915zm2.428 3.897h-5.127c.13-1.748.934-2.86 2.643-2.86s2.484 1.12 2.484 2.803v.057zm16.203-1.075a2.803 2.803 0 0 0 1.98-2.7c0-1.87-1.25-3.075-4.4-3.075-.938.001-1.876.083-2.8.243v11.625h3.4c3.054 0 4.36-1.215 4.36-3.327a2.803 2.803 0 0 0-2.54-2.766zm-4.062-4.57a13.14 13.14 0 0 1 1.671-.103c2.494 0 3.176.935 3.176 2.103s-.934 2.084-2.737 2.084h-2.1V32.45zm2.092 9.56h-2.092v-4.383h2.194c2.13 0 3.166.84 3.166 2.206s-1 2.177-3.24 2.177h-.028zm-25.786-7.812a6.898 6.898 0 0 0-2.95.71 4.089 4.089 0 0 0-2.653-.71c-1.12.01-2.236.17-3.316.476v8.4h1.187v-7.597a8.895 8.895 0 0 1 2.026-.243c1.803 0 2.475.683 2.475 2.318v5.55h1.177v-5.71a4.264 4.264 0 0 0-.28-1.663 5.6 5.6 0 0 1 2.24-.496c1.738 0 2.476.813 2.476 2.346v5.523h1.186v-5.7c-.01-2.037-1.027-3.205-3.568-3.205zm15.43-22.624a23.502 23.502 0 0 0-4.988.691V24.75h2.746V14.133a14 14 0 0 1 2.167-.196c2.736 0 3.38.934 3.38 2.916v7.896h2.737v-8.4c0-2.972-1.466-4.766-6.042-4.766zM79.83 24.656c.15-.73.242-1.57.317-2.318a6.19 6.19 0 0 1-2.138.374c-1.317 0-2.12-.626-2.12-2.243v-6.093h4.1a20.78 20.78 0 0 0 .243-2.336H75.9V7.367a9.334 9.334 0 0 0-2.737.402v13.083c0 3.047 1.7 4.26 4.362 4.26a6.226 6.226 0 0 0 2.316-.457z"/></svg>